# xmcd
#
# Track frame offsets:
#	150
#	15467
#	31037
#	46332
#	62565
#	78089
#	92897
#	110565
#	127493
#	140887
#	154239
#	171455
#	185735
#	199715
#	213539
#	214415
#	215297
#	216172
#	217348
#	218285
#	219158
#	220018
#	220898
#	221844
#	222653
#	223421
#	224362
#	225532
#	226401
#	227203
#	228064
#	228994
#	229830
#	230701
#	231542
#	232665
#	233611
#	234504
#	235340
#	236255
#	237101
#	238093
#	239273
#	240304
#	241258
#	242160
#
# Disc length: 3237 seconds
#
# Revision: 1
# Processed by: cddbd v1.5.2PL0 Copyright (c) Steve Scherf et al.
# Submitted via: audiograbber 1.83.01
#
DISCID=b40ca32e
DTITLE=Various Artist - CDX 613
DYEAR=2015
DGENRE=Country
TTITLE0=Jana Kramer - I Got The Boy
TTITLE1=Trisha Yearwood - I Remember You (Radio Edit)
TTITLE2=Eric Church - Like A Wrecking Ball
TTITLE3=Carrie Underwood - Little Toy Guns
TTITLE4=Cam - My Mistake
TTITLE5=Ruthie Collins - Ramblin' Man
TTITLE6=Osborne Brothers - Stay A Little Longer (Radio Edit)
TTITLE7=Striking Matches - Hanging On A Lie (Radio Edit)
TTITLE8=Vince Hatfield - How Long Wil I Love You
TTITLE9=SaraBeth - I'm Sick Of It
TTITLE10=Barry Michael - On My Island
TTITLE11=John King - On Your Lips
TTITLE12=Chris Cox - Sunday Mornin' Guitar
TTITLE13=Sherry Lynn - What Are You Running From
TTITLE14=Batson Haines - Home Town Country (Liner)
TTITLE15=Batson Haines - Kickin' Country (Liner)
TTITLE16=Batson Haines - More of the Country You Love (Liner)
TTITLE17=Batson Haines - Our New Single (Liner)
TTITLE18=Batson Haines - Super Country (Liner)
TTITLE19=Batson Haines - The Best In Country Music (Liner)
TTITLE20=Batson Haines - Today's Best Country (Liner)
TTITLE21=Batson Haines - Today's Hot Country Music (Liner)
TTITLE22=Brian Collins - Greatest Hits of All Time (Liner)
TTITLE23=Brian Collins - Home Town Country (Liner)
TTITLE24=Brian Collins - Kickin' Country (Liner)
TTITLE25=Brian Collins - More of the Country You Love (Liner)
TTITLE26=Brian Collins - My New Single (Liner)
TTITLE27=Brian Collins - The Best In Country Music (Liner)
TTITLE28=Brian Collins - Today's Best Country (Liner)
TTITLE29=Brian Collins - Today's Hot Country Music (Liner)
TTITLE30=Jo Dee Messina - Greatest Hits of All Time (Liner)
TTITLE31=Jo Dee Messina - Home Town Country (Liner)
TTITLE32=Jo Dee Messina - Kickin' Country (Liner)
TTITLE33=Jo Dee Messina - More of the Country You Love (Liner)
TTITLE34=Jo Dee Messina - My New Single (Liner)
TTITLE35=Jo Dee Messina - The Best In Country Music (Liner)
TTITLE36=Jo Dee Messina - Today's Best Country (Liner)
TTITLE37=Jo Dee Messina - Today's Hot Country Music (Liner)
TTITLE38=Nashville Crush - Home Town Country (Liner)
TTITLE39=Nashville Crush - Kickin' Country (Liner)
TTITLE40=Nashville Crush - More of the Country You Love (Liner)
TTITLE41=Nashville Crush - Our New Single (Liner)
TTITLE42=Nashville Crush - Super Country (Liner)
TTITLE43=Nashville Crush - The Best In Country Music (Liner)
TTITLE44=Nashville Crush - Today's Best Country (Liner)
TTITLE45=Nashville Crush - Today's Hot Country Music (Liner)
EXTD=
EXTT0=
EXTT1=
EXTT2=
EXTT3=
EXTT4=
EXTT5=
EXTT6=
EXTT7=
EXTT8=
EXTT9=
EXTT10=
EXTT11=
EXTT12=
EXTT13=
EXTT14=
EXTT15=
EXTT16=
EXTT17=
EXTT18=
EXTT19=
EXTT20=
EXTT21=
EXTT22=
EXTT23=
EXTT24=
EXTT25=
EXTT26=
EXTT27=
EXTT28=
EXTT29=
EXTT30=
EXTT31=
EXTT32=
EXTT33=
EXTT34=
EXTT35=
EXTT36=
EXTT37=
EXTT38=
EXTT39=
EXTT40=
EXTT41=
EXTT42=
EXTT43=
EXTT44=
EXTT45=
PLAYORDER=
